ffmpeg started on 2025-05-26 at 18:06:39
Report written to "D:\Convert\FFMetrics\reports\ssim_report-6.txt"
Log level: 32
Command line:
ffmpeg -hide_banner -nostdin -i "G:\\\xc0\xed\xe8\xec\xe5\\\xce\xed\xe3\xee\xe8\xed\xe3\xe8\\!_34_\xc2\xe5\xf1\xed\xe0_2024\\DreamCast\\\xc4\xe2\xe5 \xf1\xf2\xee\xf0\xee\xed\xfb \xf1\xfd\xe9\xfe \xf0\xe0\xe4\xe8\xee\\[DC] Seiyuu Radio no Uraomote - 03_Telegram_HEVC.mkv" -i "G:\\\xc0\xed\xe8\xec\xe5\\\xce\xed\xe3\xee\xe8\xed\xe3\xe8\\!_34_\xc2\xe5\xf1\xed\xe0_2024\\DreamCast\\\xc4\xe2\xe5 \xf1\xf2\xee\xf0\xee\xed\xfb \xf1\xfd\xe9\xfe \xf0\xe0\xe4\xe8\xee\\[DC] Seiyuu Radio no Uraomote - 03_Telegram.mp4" -lavfi "[0:v]settb=AVTB,setpts=PTS-STARTPTS,format=pix_fmts=yuv420p10,fps=24000/1001,scale=1920:1080:flags=bicubic[main];[1:v]settb=AVTB,setpts=PTS-STARTPTS,format=pix_fmts=yuv420p,fps=24000/1001,scale=1920:1080:flags=bicubic[ref];[main][ref]ssim=eof_action=endall:stats_file='D\\:/Convert/FFMetrics/logs/ssim_logfile-6.txt'" -f null -
Input #0, matroska,webm, from 'G:\Аниме\Онгоинги\!_34_Весна_2024\DreamCast\Две стороны сэйю радио\[DC] Seiyuu Radio no Uraomote - 03_Telegram_HEVC.mkv':
  Metadata:
    COMPATIBLE_BRANDS: isomiso2avc1mp41
    MAJOR_BRAND     : isom
    MINOR_VERSION   : 512
    ENCODER         : Lavf61.7.100
  Duration: 00:23:46.77, start: -0.021000, bitrate: 832 kb/s
  Stream #0:0: Video: hevc (Main 10), yuv420p10le(tv, bt709, progressive), 1920x1080 [SAR 1:1 DAR 16:9], 23.98 fps, 23.98 tbr, 1k tbn (default)
      Metadata:
        HANDLER_NAME    : VideoHandler
        VENDOR_ID       : [0][0][0][0]
        ENCODER         : Lavc61.19.100 libx265
        BPS             : 635159
        DURATION        : 00:23:46.633708333
        NUMBER_OF_FRAMES: 34205
        NUMBER_OF_BYTES : 113267448
        _STATISTICS_WRITING_APP: mkvpropedit v66.0.0 ('Josie') 64-bit
        _STATISTICS_WRITING_DATE_UTC: 2025-05-26 08:08:57
        _STATISTICS_TAGS: BPS DURATION NUMBER_OF_FRAMES NUMBER_OF_BYTES
  Stream #0:1: Audio: aac (LC), 48000 Hz, stereo, fltp (default)
      Metadata:
        HANDLER_NAME    : SoundHandler
        VENDOR_ID       : [0][0][0][0]
        ENCODER         : Lavc61.19.100 aac
        BPS             : 192882
        DURATION        : 00:23:46.773000000
        NUMBER_OF_FRAMES: 66881
        NUMBER_OF_BYTES : 34399882
        _STATISTICS_WRITING_APP: mkvpropedit v66.0.0 ('Josie') 64-bit
        _STATISTICS_WRITING_DATE_UTC: 2025-05-26 08:08:57
        _STATISTICS_TAGS: BPS DURATION NUMBER_OF_FRAMES NUMBER_OF_BYTES
Input #1, mov,mp4,m4a,3gp,3g2,mj2, from 'G:\Аниме\Онгоинги\!_34_Весна_2024\DreamCast\Две стороны сэйю радио\[DC] Seiyuu Radio no Uraomote - 03_Telegram.mp4':
  Metadata:
    major_brand     : isom
    minor_version   : 512
    compatible_brands: isomiso2avc1mp41
    encoder         : Lavf60.16.100
  Duration: 00:23:46.75, start: 0.000000, bitrate: 3629 kb/s
  Stream #1:0[0x1](und): Video: h264 (High) (avc1 / 0x31637661), yuv420p(tv, bt709, progressive), 1920x1080 [SAR 1:1 DAR 16:9], 3482 kb/s, 23.98 fps, 23.98 tbr, 24k tbn (default)
      Metadata:
        handler_name    : VideoHandler
        vendor_id       : [0][0][0][0]
        encoder         : Lavc60.31.102 h264_qsv
  Stream #1:1[0x2](und): Audio: aac (HE-AACv2) (mp4a / 0x6134706D), 48000 Hz, stereo, fltp, 144 kb/s (default)
      Metadata:
        handler_name    : SoundHandler
        vendor_id       : [0][0][0][0]
Stream mapping:
  Stream #0:0 (hevc) -> settb:default
  Stream #1:0 (h264) -> settb:default
  ssim:default -> Stream #0:0 (wrapped_avframe)
  Stream #0:1 -> #0:1 (aac (native) -> pcm_s16le (native))
Output #0, null, to 'pipe:':
  Metadata:
    COMPATIBLE_BRANDS: isomiso2avc1mp41
    MAJOR_BRAND     : isom
    MINOR_VERSION   : 512
    encoder         : Lavf61.7.100
  Stream #0:0: Video: wrapped_avframe, yuv420p10le(tv, bt709, progressive), 1920x1080 [SAR 1:1 DAR 16:9], q=2-31, 200 kb/s, 23.98 fps, 23.98 tbn
      Metadata:
        encoder         : Lavc61.19.100 wrapped_avframe
  Stream #0:1: Audio: pcm_s16le, 48000 Hz, stereo, s16, 1536 kb/s (default)
      Metadata:
        HANDLER_NAME    : SoundHandler
        VENDOR_ID       : [0][0][0][0]
        _STATISTICS_TAGS: BPS DURATION NUMBER_OF_FRAMES NUMBER_OF_BYTES
        BPS             : 192882
        DURATION        : 00:23:46.773000000
        NUMBER_OF_FRAMES: 66881
        NUMBER_OF_BYTES : 34399882
        _STATISTICS_WRITING_APP: mkvpropedit v66.0.0 ('Josie') 64-bit
        _STATISTICS_WRITING_DATE_UTC: 2025-05-26 08:08:57
        encoder         : Lavc61.19.100 pcm_s16le
frame=  192 fps=0.0 q=-0.0 size=N/A time=00:00:08.00 bitrate=N/A speed=15.5x    frame=  461 fps=445 q=-0.0 size=N/A time=00:00:19.22 bitrate=N/A speed=18.6x    frame=  673 fps=432 q=-0.0 size=N/A time=00:00:28.06 bitrate=N/A speed=  18x    frame=  921 fps=446 q=-0.0 size=N/A time=00:00:38.41 bitrate=N/A speed=18.6x    frame= 1152 fps=445 q=-0.0 size=N/A time=00:00:48.04 bitrate=N/A speed=18.5x    frame= 1396 fps=451 q=-0.0 size=N/A time=00:00:58.22 bitrate=N/A speed=18.8x    frame= 1635 fps=451 q=-0.0 size=N/A time=00:01:08.19 bitrate=N/A speed=18.8x    frame= 1759 fps=426 q=-0.0 size=N/A time=00:01:13.36 bitrate=N/A speed=17.8x    frame= 1904 fps=410 q=-0.0 size=N/A time=00:01:19.41 bitrate=N/A speed=17.1x    frame= 2119 fps=411 q=-0.0 size=N/A time=00:01:28.37 bitrate=N/A speed=17.1x    frame= 2330 fps=410 q=-0.0 size=N/A time=00:01:37.18 bitrate=N/A speed=17.1x    frame= 2559 fps=414 q=-0.0 size=N/A time=00:01:46.73 bitrate=N/A speed=17.3x    frame= 2773 fps=413 q=-0.0 size=N/A time=00:01:55.65 bitrate=N/A speed=17.2x    frame= 3006 fps=416 q=-0.0 size=N/A time=00:02:05.37 bitrate=N/A speed=17.3x    frame= 3251 fps=420 q=-0.0 size=N/A time=00:02:15.59 bitrate=N/A speed=17.5x    frame= 3514 fps=425 q=-0.0 size=N/A time=00:02:26.56 bitrate=N/A speed=17.7x    frame= 3774 fps=430 q=-0.0 size=N/A time=00:02:37.40 bitrate=N/A speed=17.9x    frame= 3986 fps=429 q=-0.0 size=N/A time=00:02:46.24 bitrate=N/A speed=17.9x    frame= 4215 fps=430 q=-0.0 size=N/A time=00:02:55.80 bitrate=N/A speed=17.9x    frame= 4434 fps=430 q=-0.0 size=N/A time=00:03:04.93 bitrate=N/A speed=17.9x    frame= 4681 fps=432 q=-0.0 size=N/A time=00:03:15.23 bitrate=N/A speed=  18x    frame= 4945 fps=436 q=-0.0 size=N/A time=00:03:26.24 bitrate=N/A speed=18.2x    frame= 5211 fps=439 q=-0.0 size=N/A time=00:03:37.34 bitrate=N/A speed=18.3x    frame= 5460 fps=441 q=-0.0 size=N/A time=00:03:47.72 bitrate=N/A speed=18.4x    frame= 5705 fps=443 q=-0.0 size=N/A time=00:03:57.94 bitrate=N/A speed=18.5x    frame= 5963 fps=445 q=-0.0 size=N/A time=00:04:08.70 bitrate=N/A speed=18.5x    frame= 6248 fps=449 q=-0.0 size=N/A time=00:04:20.59 bitrate=N/A speed=18.7x    frame= 6524 fps=452 q=-0.0 size=N/A time=00:04:32.10 bitrate=N/A speed=18.8x    frame= 6784 fps=454 q=-0.0 size=N/A time=00:04:42.94 bitrate=N/A speed=18.9x    frame= 7057 fps=456 q=-0.0 size=N/A time=00:04:54.33 bitrate=N/A speed=  19x    frame= 7333 fps=459 q=-0.0 size=N/A time=00:05:05.84 bitrate=N/A speed=19.1x    frame= 7599 fps=460 q=-0.0 size=N/A time=00:05:16.94 bitrate=N/A speed=19.2x    frame= 7856 fps=462 q=-0.0 size=N/A time=00:05:27.66 bitrate=N/A speed=19.3x    frame= 8124 fps=463 q=-0.0 size=N/A time=00:05:38.83 bitrate=N/A speed=19.3x    frame= 8377 fps=464 q=-0.0 size=N/A time=00:05:49.39 bitrate=N/A speed=19.4x    frame= 8658 fps=466 q=-0.0 size=N/A time=00:06:01.11 bitrate=N/A speed=19.4x    frame= 8915 fps=467 q=-0.0 size=N/A time=00:06:11.82 bitrate=N/A speed=19.5x    frame= 9175 fps=468 q=-0.0 size=N/A time=00:06:22.67 bitrate=N/A speed=19.5x    frame= 9421 fps=468 q=-0.0 size=N/A time=00:06:32.93 bitrate=N/A speed=19.5x    frame= 9689 fps=470 q=-0.0 size=N/A time=00:06:44.11 bitrate=N/A speed=19.6x    frame= 9943 fps=470 q=-0.0 size=N/A time=00:06:54.70 bitrate=N/A speed=19.6x    frame=10214 fps=471 q=-0.0 size=N/A time=00:07:06.00 bitrate=N/A speed=19.7x    frame=10446 fps=471 q=-0.0 size=N/A time=00:07:15.68 bitrate=N/A speed=19.6x    frame=10715 fps=472 q=-0.0 size=N/A time=00:07:26.90 bitrate=N/A speed=19.7x    frame=10976 fps=473 q=-0.0 size=N/A time=00:07:37.79 bitrate=N/A speed=19.7x    frame=11230 fps=473 q=-0.0 size=N/A time=00:07:48.38 bitrate=N/A speed=19.7x    frame=11517 fps=475 q=-0.0 size=N/A time=00:08:00.35 bitrate=N/A speed=19.8x    frame=11792 fps=476 q=-0.0 size=N/A time=00:08:11.82 bitrate=N/A speed=19.9x    frame=12078 fps=478 q=-0.0 size=N/A time=00:08:23.75 bitrate=N/A speed=19.9x    frame=12336 fps=478 q=-0.0 size=N/A time=00:08:34.51 bitrate=N/A speed=  20x    frame=12589 fps=479 q=-0.0 size=N/A time=00:08:45.06 bitrate=N/A speed=  20x    frame=12853 fps=479 q=-0.0 size=N/A time=00:08:56.07 bitrate=N/A speed=  20x    frame=13130 fps=480 q=-0.0 size=N/A time=00:09:07.63 bitrate=N/A speed=  20x    frame=13395 fps=481 q=-0.0 size=N/A time=00:09:18.68 bitrate=N/A speed=20.1x    frame=13668 fps=482 q=-0.0 size=N/A time=00:09:30.06 bitrate=N/A speed=20.1x    frame=13950 fps=483 q=-0.0 size=N/A time=00:09:41.83 bitrate=N/A speed=20.1x    frame=14228 fps=484 q=-0.0 size=N/A time=00:09:53.42 bitrate=N/A speed=20.2x    frame=14511 fps=485 q=-0.0 size=N/A time=00:10:05.22 bitrate=N/A speed=20.2x    frame=14777 fps=486 q=-0.0 size=N/A time=00:10:16.32 bitrate=N/A speed=20.3x    frame=15052 fps=486 q=-0.0 size=N/A time=00:10:27.79 bitrate=N/A speed=20.3x    frame=15331 fps=487 q=-0.0 size=N/A time=00:10:39.43 bitrate=N/A speed=20.3x    frame=15614 fps=488 q=-0.0 size=N/A time=00:10:51.23 bitrate=N/A speed=20.4x    frame=15896 fps=489 q=-0.0 size=N/A time=00:11:02.99 bitrate=N/A speed=20.4x    frame=16171 fps=490 q=-0.0 size=N/A time=00:11:14.46 bitrate=N/A speed=20.4x    frame=16464 fps=491 q=-0.0 size=N/A time=00:11:26.68 bitrate=N/A speed=20.5x    frame=16737 fps=492 q=-0.0 size=N/A time=00:11:38.07 bitrate=N/A speed=20.5x    frame=16995 fps=492 q=-0.0 size=N/A time=00:11:48.83 bitrate=N/A speed=20.5x    frame=17284 fps=493 q=-0.0 size=N/A time=00:12:00.88 bitrate=N/A speed=20.6x    frame=17548 fps=493 q=-0.0 size=N/A time=00:12:11.89 bitrate=N/A speed=20.6x    frame=17768 fps=492 q=-0.0 size=N/A time=00:12:21.07 bitrate=N/A speed=20.5x    frame=18048 fps=493 q=-0.0 size=N/A time=00:12:32.75 bitrate=N/A speed=20.6x    frame=18315 fps=493 q=-0.0 size=N/A time=00:12:43.88 bitrate=N/A speed=20.6x    frame=18576 fps=494 q=-0.0 size=N/A time=00:12:54.77 bitrate=N/A speed=20.6x    frame=18864 fps=494 q=-0.0 size=N/A time=00:13:06.78 bitrate=N/A speed=20.6x    frame=19153 fps=495 q=-0.0 size=N/A time=00:13:18.83 bitrate=N/A speed=20.7x    frame=19437 fps=496 q=-0.0 size=N/A time=00:13:30.68 bitrate=N/A speed=20.7x    frame=19716 fps=497 q=-0.0 size=N/A time=00:13:42.32 bitrate=N/A speed=20.7x    frame=19986 fps=497 q=-0.0 size=N/A time=00:13:53.58 bitrate=N/A speed=20.7x    frame=20250 fps=497 q=-0.0 size=N/A time=00:14:04.59 bitrate=N/A speed=20.7x    frame=20517 fps=497 q=-0.0 size=N/A time=00:14:15.72 bitrate=N/A speed=20.7x    frame=20762 fps=497 q=-0.0 size=N/A time=00:14:25.94 bitrate=N/A speed=20.7x    frame=21007 fps=497 q=-0.0 size=N/A time=00:14:36.16 bitrate=N/A speed=20.7x    frame=21266 fps=497 q=-0.0 size=N/A time=00:14:46.96 bitrate=N/A speed=20.7x    frame=21526 fps=497 q=-0.0 size=N/A time=00:14:57.81 bitrate=N/A speed=20.7x    frame=21758 fps=496 q=-0.0 size=N/A time=00:15:07.48 bitrate=N/A speed=20.7x    frame=21960 fps=495 q=-0.0 size=N/A time=00:15:15.91 bitrate=N/A speed=20.7x    frame=22256 fps=496 q=-0.0 size=N/A time=00:15:28.26 bitrate=N/A speed=20.7x    frame=22518 fps=496 q=-0.0 size=N/A time=00:15:39.18 bitrate=N/A speed=20.7x    frame=22788 fps=496 q=-0.0 size=N/A time=00:15:50.44 bitrate=N/A speed=20.7x    frame=23049 fps=497 q=-0.0 size=N/A time=00:16:01.33 bitrate=N/A speed=20.7x    frame=23315 fps=497 q=-0.0 size=N/A time=00:16:12.42 bitrate=N/A speed=20.7x    frame=23573 fps=497 q=-0.0 size=N/A time=00:16:23.19 bitrate=N/A speed=20.7x    frame=23798 fps=496 q=-0.0 size=N/A time=00:16:32.57 bitrate=N/A speed=20.7x    frame=24027 fps=496 q=-0.0 size=N/A time=00:16:42.12 bitrate=N/A speed=20.7x    frame=24316 fps=496 q=-0.0 size=N/A time=00:16:54.17 bitrate=N/A speed=20.7x    frame=24604 fps=497 q=-0.0 size=N/A time=00:17:06.19 bitrate=N/A speed=20.7x    frame=24876 fps=497 q=-0.0 size=N/A time=00:17:17.53 bitrate=N/A speed=20.7x    frame=25133 fps=497 q=-0.0 size=N/A time=00:17:28.25 bitrate=N/A speed=20.7x    frame=25410 fps=498 q=-0.0 size=N/A time=00:17:39.80 bitrate=N/A speed=20.8x    frame=25691 fps=498 q=-0.0 size=N/A time=00:17:51.52 bitrate=N/A speed=20.8x    frame=25967 fps=498 q=-0.0 size=N/A time=00:18:03.04 bitrate=N/A speed=20.8x    frame=26260 fps=499 q=-0.0 size=N/A time=00:18:15.26 bitrate=N/A speed=20.8x    frame=26530 fps=499 q=-0.0 size=N/A time=00:18:26.52 bitrate=N/A speed=20.8x    frame=26821 fps=500 q=-0.0 size=N/A time=00:18:38.65 bitrate=N/A speed=20.9x    frame=27091 fps=500 q=-0.0 size=N/A time=00:18:49.92 bitrate=N/A speed=20.9x    frame=27331 fps=500 q=-0.0 size=N/A time=00:18:59.93 bitrate=N/A speed=20.8x    frame=27596 fps=500 q=-0.0 size=N/A time=00:19:10.98 bitrate=N/A speed=20.9x    frame=27878 fps=500 q=-0.0 size=N/A time=00:19:22.74 bitrate=N/A speed=20.9x    frame=28173 fps=501 q=-0.0 size=N/A time=00:19:35.04 bitrate=N/A speed=20.9x    frame=28440 fps=501 q=-0.0 size=N/A time=00:19:46.18 bitrate=N/A speed=20.9x    frame=28716 fps=502 q=-0.0 size=N/A time=00:19:57.69 bitrate=N/A speed=20.9x    frame=29001 fps=502 q=-0.0 size=N/A time=00:20:09.58 bitrate=N/A speed=20.9x    frame=29280 fps=502 q=-0.0 size=N/A time=00:20:21.22 bitrate=N/A speed=  21x    frame=29548 fps=502 q=-0.0 size=N/A time=00:20:32.39 bitrate=N/A speed=  21x    frame=29821 fps=503 q=-0.0 size=N/A time=00:20:43.78 bitrate=N/A speed=  21x    frame=30094 fps=503 q=-0.0 size=N/A time=00:20:55.17 bitrate=N/A speed=  21x    frame=30359 fps=503 q=-0.0 size=N/A time=00:21:06.22 bitrate=N/A speed=  21x    frame=30625 fps=503 q=-0.0 size=N/A time=00:21:17.31 bitrate=N/A speed=  21x    frame=30911 fps=504 q=-0.0 size=N/A time=00:21:29.24 bitrate=N/A speed=  21x    frame=31179 fps=504 q=-0.0 size=N/A time=00:21:40.42 bitrate=N/A speed=  21x    frame=31466 fps=504 q=-0.0 size=N/A time=00:21:52.39 bitrate=N/A speed=  21x    frame=31712 fps=504 q=-0.0 size=N/A time=00:22:02.65 bitrate=N/A speed=  21x    frame=31959 fps=504 q=-0.0 size=N/A time=00:22:12.95 bitrate=N/A speed=  21x    frame=32203 fps=504 q=-0.0 size=N/A time=00:22:23.13 bitrate=N/A speed=  21x    frame=32411 fps=503 q=-0.0 size=N/A time=00:22:31.80 bitrate=N/A speed=  21x    frame=32634 fps=502 q=-0.0 size=N/A time=00:22:41.10 bitrate=N/A speed=20.9x    frame=32863 fps=502 q=-0.0 size=N/A time=00:22:50.66 bitrate=N/A speed=20.9x    frame=33070 fps=501 q=-0.0 size=N/A time=00:22:59.29 bitrate=N/A speed=20.9x    frame=33267 fps=500 q=-0.0 size=N/A time=00:23:07.51 bitrate=N/A speed=20.8x    frame=33478 fps=499 q=-0.0 size=N/A time=00:23:16.31 bitrate=N/A speed=20.8x    frame=33706 fps=499 q=-0.0 size=N/A time=00:23:25.82 bitrate=N/A speed=20.8x    frame=33935 fps=498 q=-0.0 size=N/A time=00:23:35.37 bitrate=N/A speed=20.8x    frame=34173 fps=498 q=-0.0 size=N/A time=00:23:45.29 bitrate=N/A speed=20.8x    [Parsed_ssim_10 @ 000001a92b71a000] SSIM Y:0.995558 (23.524405) U:0.995000 (23.010577) V:0.994777 (22.821187) All:0.995335 (23.311571)
[out#0/null @ 000001a91e223b80] video:14697KiB audio:267524KiB subtitle:0KiB other streams:0KiB global headers:0KiB muxing overhead: unknown
frame=34205 fps=498 q=-0.0 Lsize=N/A time=00:23:46.63 bitrate=N/A speed=20.8x    
